<svg width="181" height="19" viewBox="0 0 181 19" fill="none" xmlns="http://www.w3.org/2000/svg">
<path d="M0.848 0.863999V18H5.312V12.24H9.056C13.112 12.24 15.464 10.128 15.464 6.504C15.464 2.928 13.112 0.863999 9.056 0.863999H0.848ZM5.312 8.424V4.752H8.48C10.232 4.752 10.904 5.352 10.904 6.576C10.904 7.8 10.232 8.424 8.48 8.424H5.312ZM18.4261 0.863999V18H22.8901V12H26.4421L28.5781 18H33.0421L30.5701 11.112C32.2021 10.176 33.0661 8.592 33.0661 6.408C33.0661 2.928 30.7621 0.863999 26.8021 0.863999H18.4261ZM22.8901 8.28V4.752H26.2021C27.8581 4.752 28.5061 5.352 28.5061 6.504C28.5061 7.632 27.8581 8.28 26.2021 8.28H22.8901ZM43.9454 0.551999C38.4014 0.551999 35.3774 4.344 35.3774 9.432C35.3774 14.52 38.4014 18.312 43.9454 18.312C49.4894 18.312 52.5134 14.52 52.5134 9.432C52.5134 4.344 49.4894 0.551999 43.9454 0.551999ZM43.9454 14.376C41.2814 14.376 39.9374 12.312 39.9374 9.432C39.9374 6.528 41.2814 4.488 43.9454 4.488C46.6094 4.488 47.9534 6.552 47.9534 9.432C47.9534 12.312 46.6094 14.376 43.9454 14.376ZM63.1614 8.208V11.736H66.4734C66.4014 13.296 65.2494 14.448 63.2334 14.448C60.6654 14.448 59.2734 12.48 59.2734 9.432C59.2734 6.432 60.6654 4.488 63.1614 4.488C64.6014 4.488 65.5614 5.016 65.8734 6.048H70.4814C69.8574 2.808 67.2894 0.551999 63.1854 0.551999C57.7134 0.551999 54.7134 4.176 54.7134 9.432C54.7134 14.76 57.7134 18.312 63.1854 18.312C68.6814 18.312 70.8894 14.424 70.8894 10.392V8.208H63.1614ZM73.973 0.863999V18H78.437V12H81.989L84.125 18H88.589L86.117 11.112C87.749 10.176 88.613 8.592 88.613 6.408C88.613 2.928 86.309 0.863999 82.349 0.863999H73.973ZM78.437 8.28V4.752H81.749C83.405 4.752 84.053 5.352 84.053 6.504C84.053 7.632 83.405 8.28 81.749 8.28H78.437ZM102.756 11.184V7.344H96.1323V4.8H104.82V0.863999H91.6683V18H105.036V14.064H96.1323V11.184H102.756ZM121.304 5.808C120.992 2.496 118.112 0.551999 114.272 0.551999C109.928 0.551999 107.528 3 107.528 5.952C107.528 8.544 108.968 10.32 112.064 10.824L115.28 11.352C116.504 11.568 117.248 11.928 117.248 12.984C117.248 13.944 116.312 14.592 114.776 14.592C113.264 14.592 111.848 14.136 111.584 12.48H107.024C107.384 16.152 110 18.312 114.584 18.312C119.456 18.312 121.736 15.672 121.736 12.72C121.736 9.576 119.624 8.04 116.84 7.584L113.696 7.08C112.664 6.912 112.04 6.6 112.04 5.76C112.04 4.728 113.048 4.272 114.224 4.272C115.568 4.272 116.48 4.656 116.744 5.808H121.304ZM138.249 5.808C137.937 2.496 135.057 0.551999 131.217 0.551999C126.873 0.551999 124.473 3 124.473 5.952C124.473 8.544 125.913 10.32 129.009 10.824L132.225 11.352C133.449 11.568 134.193 11.928 134.193 12.984C134.193 13.944 133.257 14.592 131.721 14.592C130.209 14.592 128.793 14.136 128.529 12.48H123.969C124.329 16.152 126.945 18.312 131.529 18.312C136.401 18.312 138.681 15.672 138.681 12.72C138.681 9.576 136.569 8.04 133.785 7.584L130.641 7.08C129.609 6.912 128.985 6.6 128.985 5.76C128.985 4.728 129.993 4.272 131.169 4.272C132.513 4.272 133.425 4.656 133.689 5.808H138.249ZM146.338 0.863999H141.874V18H146.338V0.863999ZM153.505 18H160.609L165.385 0.863999H160.849L157.633 13.776H156.577L153.337 0.863999H148.705L153.505 18ZM178.717 11.184V7.344H172.093V4.8H180.781V0.863999H167.629V18H180.997V14.064H172.093V11.184H178.717Z" fill="url(#paint0_angular)"/>
<defs>
<radialGradient id="paint0_angular" cx="0" cy="0" r="1" gradientUnits="userSpaceOnUse" gradientTransform="translate(-1.00001 24) rotate(-9.00478) scale(185.284 101.968)">
<stop offset="0.0885417" stop-color="#0085FF"/>
<stop offset="0.911458" stop-color="#3E007B"/>
</radialGradient>
</defs>
</svg>
